<?xml version="1.0" encoding="UTF-8" standalone="no"?>
<svg
   id="svg8"
   version="1.1"
   viewBox="0 0 156.68889 36.954539"
   height="36.95454mm"
   width="156.6889mm"
   inkscape:version="1.1 (c68e22c387, 2021-05-23)"
   sodipodi:docname="logo.svg"
   inkscape:export-xdpi="159.20084"
   inkscape:export-ydpi="159.20084"
   xmlns:inkscape="http://www.inkscape.org/namespaces/inkscape"
   xmlns:sodipodi="http://sodipodi.sourceforge.net/DTD/sodipodi-0.dtd"
   xmlns="http://www.w3.org/2000/svg"
   xmlns:svg="http://www.w3.org/2000/svg"
   xmlns:rdf="http://www.w3.org/1999/02/22-rdf-syntax-ns#"
   xmlns:cc="http://creativecommons.org/ns#"
   xmlns:dc="http://purl.org/dc/elements/1.1/"
   xmlns:ns2="http://www.iki.fi/pav/software/textext/">
  <defs
     id="defs2" />
  <sodipodi:namedview
     id="base"
     pagecolor="#ffffff"
     bordercolor="#666666"
     borderopacity="1.0"
     inkscape:pageopacity="0.0"
     inkscape:pageshadow="2"
     inkscape:zoom="1.8409606"
     inkscape:cx="208.85835"
     inkscape:cy="125.74957"
     inkscape:document-units="mm"
     inkscape:current-layer="layer1"
     inkscape:document-rotation="0"
     showgrid="false"
     inkscape:window-width="1890"
     inkscape:window-height="1051"
     inkscape:window-x="0"
     inkscape:window-y="0"
     inkscape:window-maximized="1"
     fit-margin-top="0"
     fit-margin-left="0"
     fit-margin-right="0"
     fit-margin-bottom="0"
     gridtolerance="10000"
     inkscape:pagecheckerboard="0"
     showguides="true"
     inkscape:guide-bbox="true" />
  <metadata
     id="metadata5">
    <rdf:RDF>
      <cc:Work
         rdf:about="">
        <dc:format>image/svg+xml</dc:format>
        <dc:type
           rdf:resource="http://purl.org/dc/dcmitype/StillImage" />
      </cc:Work>
    </rdf:RDF>
  </metadata>
  <g
     inkscape:label="Layer 1"
     inkscape:groupmode="layer"
     id="layer1"
     transform="translate(74.802442,3.3228897)">
    <path
       id="rect1542-3"
       style="fill:#e6e6e6;stroke:#cccccc;stroke-width:0.346624;stroke-linecap:round;stroke-linejoin:bevel"
       d="M -66.955539,-1.8291156 H 75.559222 c 3.409978,0 6.155195,2.74521662 6.155195,6.1551943 V 27.301872 c 0,3.409978 -2.745217,6.155195 -6.155195,6.155195 H -66.955539 c -3.409977,0 -6.155194,-2.745217 -6.155194,-6.155195 V 4.3260787 c 0,-3.40997768 2.745217,-6.1551943 6.155194,-6.1551943 z" />
    <path
       id="rect1542"
       style="fill:#ffffff;stroke:#cccccc;stroke-width:0.346624;stroke-linecap:round;stroke-linejoin:bevel"
       d="M -68.475207,-3.1483014 H 74.039554 c 3.409977,0 6.155194,2.74521669 6.155194,6.1551943 V 25.982683 c 0,3.409978 -2.745217,6.155194 -6.155194,6.155194 H -68.475207 c -3.409978,0 -6.155195,-2.745216 -6.155195,-6.155194 V 3.0068929 c 0,-3.40997761 2.745217,-6.1551943 6.155195,-6.1551943 z" />
    <text
       xml:space="preserve"
       style="font-style:normal;font-variant:normal;font-weight:normal;font-stretch:normal;font-size:12.7px;line-height:125%;font-family:'Times New Roman';-inkscape-font-specification:'Times New Roman, ';letter-spacing:0px;word-spacing:0px;fill:#000000;fill-opacity:1;stroke:none;stroke-width:0.264583px;stroke-linecap:butt;stroke-linejoin:miter;stroke-opacity:1"
       x="-52.038307"
       y="78.253487"
       id="text29820"><tspan
         sodipodi:role="line"
         id="tspan29818"
         style="font-style:italic;font-variant:normal;font-weight:normal;font-stretch:normal;font-size:12.7px;font-family:'Times New Roman';-inkscape-font-specification:'Times New Roman,  Italic';stroke-width:0.264583px"
         x="-52.038307"
         y="78.253487" /></text>
    <g
       id="g446">
      <g
         transform="matrix(1.8627877,0,0,1.8627877,-16.969136,18.455464)"
         id="g58025"
         style="fill:#000000;fill-opacity:1;stroke-width:0.267238">
        <path
           style="stroke:none;stroke-width:0.267238"
           d="M 0.890625,1.28125 C 0.8125,1.578125 0.734375,1.609375 0.34375,1.625 c -0.078125,0 -0.203125,0 -0.203125,0.1875 0,0.078125 0.046875,0.125 0.125,0.125 0.265625,0 0.546875,-0.03125 0.828125,-0.03125 0.328125,0 0.65625,0.03125 0.96875,0.03125 0.0625,0 0.1875,0 0.1875,-0.1875 C 2.25,1.625 2.15625,1.625 2.015625,1.625 1.5,1.625 1.5,1.5625 1.5,1.46875 1.5,1.40625 1.578125,1.140625 1.609375,0.984375 L 1.96875,-0.46875 c 0.078125,0.171875 0.328125,0.578125 0.84375,0.578125 1.078125,0 2.265625,-1.46875 2.265625,-2.953125 0,-1.078125 -0.59375,-1.5625 -1.1875,-1.5625 -0.484375,0 -0.921875,0.359375 -1.203125,0.703125 C 2.5625,-4.28125 2.109375,-4.40625 1.859375,-4.40625 1.5,-4.40625 1.3125,-4.171875 1.140625,-3.875 c -0.1875,0.390625 -0.3125,0.984375 -0.3125,1 0,0.109375 0.09375,0.109375 0.15625,0.109375 0.125,0 0.125,-0.015625 0.1875,-0.234375 0.171875,-0.703125 0.359375,-1.1875 0.671875,-1.1875 0.265625,0 0.265625,0.296875 0.265625,0.40625 0,0.046875 0,0.21875 -0.078125,0.484375 z M 2.625,-3.0625 c 0.078125,-0.34375 0.6875,-1.125 1.25,-1.125 0.4375,0 0.546875,0.5625 0.546875,0.890625 0,0.421875 -0.28125,1.609375 -0.5625,2.234375 -0.125,0.25 -0.546875,0.953125 -1.0625,0.953125 -0.578125,0 -0.671875,-0.84375 -0.671875,-0.921875 0,-0.03125 0.015625,-0.0625 0.03125,-0.140625 z m 0,0"
           id="id-6f7bee08-2c9a-4d6e-b3b5-446b9015c6c7" />
      </g>
      <g
         transform="matrix(1.8627877,0,0,1.8627877,-7.4838206,18.455464)"
         id="g58028"
         style="fill:#000000;fill-opacity:1;stroke-width:0.267238">
        <path
           style="stroke:none;stroke-width:0.267238"
           d="m 3.5625,-0.265625 c -0.375,1.65625 -1.125,2.09375 -1.625,2.09375 -0.46875,0 -0.609375,-0.375 -0.609375,-0.4375 0,0 0,-0.015625 0.078125,-0.03125 C 1.71875,1.3125 1.828125,1.046875 1.828125,0.890625 1.828125,0.671875 1.671875,0.5625 1.5,0.5625 c -0.125,0 -0.515625,0.0625 -0.515625,0.625 0,0.515625 0.40625,0.859375 0.953125,0.859375 1.046875,0 1.953125,-1.03125 2.203125,-2.015625 l 0.96875,-3.921875 C 5.125,-3.953125 5.140625,-4 5.140625,-4.03125 5.140625,-4.140625 5.0625,-4.296875 4.859375,-4.296875 4.5625,-4.296875 4.5,-4 4.46875,-3.921875 L 3.75,-1 c -0.078125,0.296875 -0.46875,0.890625 -1.0625,0.890625 -0.4375,0 -0.53125,-0.4375 -0.53125,-0.765625 0,-0.609375 0.328125,-1.5 0.578125,-2.1875 0.078125,-0.203125 0.125,-0.34375 0.125,-0.53125 0,-0.5 -0.328125,-0.8125 -0.75,-0.8125 -0.9375,0 -1.28125,1.46875 -1.28125,1.53125 0,0.109375 0.09375,0.109375 0.15625,0.109375 0.125,0 0.125,-0.03125 0.171875,-0.171875 0.078125,-0.296875 0.34375,-1.25 0.921875,-1.25 0.109375,0 0.21875,0.03125 0.21875,0.296875 0,0.234375 -0.09375,0.5 -0.234375,0.890625 -0.265625,0.703125 -0.515625,1.4375 -0.515625,1.953125 0,0.875 0.578125,1.15625 1.109375,1.15625 0.46875,0 0.765625,-0.234375 0.90625,-0.375 z m 0,0"
           id="id-8acfa531-d91f-4041-bebc-93f56411835f" />
      </g>
      <g
         transform="matrix(1.8627877,0,0,1.8627877,1.5283463,18.455464)"
         id="g58031"
         style="fill:#000000;fill-opacity:1;stroke-width:0.267238">
        <path
           style="stroke:none;stroke-width:0.267238"
           d="m 4.34375,-3.765625 c -0.5,0.0625 -0.5,0.46875 -0.5,0.5 0,0.15625 0.109375,0.3125 0.328125,0.3125 0.28125,0 0.515625,-0.21875 0.515625,-0.59375 0,-0.484375 -0.4375,-0.859375 -1.0625,-0.859375 -1.25,0 -2.53125,1.421875 -2.53125,2.875 0,0.984375 0.59375,1.640625 1.46875,1.640625 1.28125,0 2.109375,-1 2.109375,-1.140625 0,-0.0625 -0.09375,-0.171875 -0.171875,-0.171875 -0.03125,0 -0.046875,0.015625 -0.125,0.109375 -0.734375,0.9375 -1.625,0.984375 -1.796875,0.984375 -0.53125,0 -0.78125,-0.453125 -0.78125,-1.03125 0,-0.53125 0.265625,-1.578125 0.53125,-2.046875 0.359375,-0.65625 0.859375,-1 1.296875,-1 0.109375,0 0.5625,0.015625 0.71875,0.421875 z m 0,0"
           id="id-9d65aca0-abe4-46ce-abe5-476a638c8765" />
      </g>
      <g
         transform="matrix(1.8627877,0,0,1.8627877,9.1173434,18.455464)"
         id="g58035"
         style="fill:#000000;fill-opacity:1;stroke-width:0.267238">
        <path
           style="stroke:none;stroke-width:0.267238"
           d="m 5.078125,-2.765625 c 0,-0.953125 -0.59375,-1.640625 -1.453125,-1.640625 -1.25,0 -2.53125,1.421875 -2.53125,2.875 0,1.015625 0.625,1.640625 1.453125,1.640625 1.234375,0 2.53125,-1.421875 2.53125,-2.875 z m -2.53125,2.65625 c -0.390625,0 -0.75,-0.3125 -0.75,-1.03125 0,-0.5 0.25,-1.59375 0.578125,-2.140625 0.359375,-0.609375 0.84375,-0.90625 1.234375,-0.90625 0.484375,0 0.765625,0.4375 0.765625,1.03125 0,0.421875 -0.21875,1.453125 -0.53125,2.046875 -0.296875,0.546875 -0.796875,1 -1.296875,1 z m 0,0"
           id="id-0f464dac-1da1-4390-af3c-eb271aaac77b" />
      </g>
      <g
         transform="matrix(1.8627877,0,0,1.8627877,18.602658,18.455464)"
         id="g58038"
         style="fill:#000000;fill-opacity:1;stroke-width:0.267238">
        <path
           style="stroke:none;stroke-width:0.267238"
           d="m 2.296875,-1.75 c 0.046875,-0.21875 0.109375,-0.421875 0.15625,-0.640625 0.125,-0.484375 0.125,-0.515625 0.25,-0.71875 0.28125,-0.5 0.71875,-1.078125 1.40625,-1.078125 0.453125,0 0.453125,0.515625 0.453125,0.65625 0,0.265625 -0.0625,0.5625 -0.09375,0.65625 l -0.640625,2.578125 c -0.015625,0.0625 -0.03125,0.125 -0.03125,0.140625 0,0.109375 0.078125,0.265625 0.28125,0.265625 0.125,0 0.28125,-0.0625 0.359375,-0.265625 L 4.828125,-1.75 C 4.890625,-1.96875 4.9375,-2.171875 5,-2.390625 5.125,-2.875 5.125,-2.90625 5.25,-3.109375 c 0.28125,-0.5 0.71875,-1.078125 1.40625,-1.078125 0.453125,0 0.453125,0.515625 0.453125,0.65625 0,0.625 -0.4375,1.8125 -0.578125,2.203125 -0.125,0.34375 -0.15625,0.4375 -0.15625,0.640625 0,0.4375 0.28125,0.796875 0.75,0.796875 0.9375,0 1.265625,-1.484375 1.265625,-1.53125 0,-0.109375 -0.078125,-0.109375 -0.140625,-0.109375 -0.140625,0 -0.140625,0.03125 -0.171875,0.171875 -0.078125,0.265625 -0.359375,1.25 -0.9375,1.25 -0.203125,0 -0.21875,-0.15625 -0.21875,-0.296875 0,-0.234375 0.109375,-0.5 0.1875,-0.734375 C 7.3125,-1.671875 7.71875,-2.796875 7.71875,-3.375 c 0,-0.828125 -0.578125,-1.03125 -1.046875,-1.03125 -0.703125,0 -1.203125,0.4375 -1.5,0.875 -0.078125,-0.6875 -0.59375,-0.875 -1.046875,-0.875 -0.59375,0 -1.078125,0.328125 -1.421875,0.78125 C 2.625,-4.109375 2.296875,-4.40625 1.859375,-4.40625 1.5,-4.40625 1.3125,-4.171875 1.140625,-3.875 c -0.1875,0.390625 -0.3125,0.984375 -0.3125,1 0,0.109375 0.09375,0.109375 0.15625,0.109375 0.125,0 0.125,-0.015625 0.1875,-0.234375 0.171875,-0.703125 0.359375,-1.1875 0.671875,-1.1875 0.265625,0 0.265625,0.296875 0.265625,0.40625 0,0.15625 -0.03125,0.34375 -0.078125,0.5 l -0.75,2.984375 c -0.015625,0.0625 -0.03125,0.125 -0.03125,0.140625 0,0.109375 0.078125,0.265625 0.28125,0.265625 0.125,0 0.296875,-0.0625 0.359375,-0.265625 z m 0,0"
           id="id-0e830e7e-2e31-4650-b40b-c6935dcf9302" />
      </g>
      <g
         transform="matrix(1.8627877,0,0,1.8627877,33.780653,18.455464)"
         id="g58041"
         style="fill:#000000;fill-opacity:1;stroke-width:0.267238">
        <path
           style="stroke:none;stroke-width:0.267238"
           d="m 2.296875,-1.75 c 0.046875,-0.21875 0.109375,-0.421875 0.15625,-0.640625 0.125,-0.484375 0.125,-0.515625 0.25,-0.71875 0.28125,-0.5 0.71875,-1.078125 1.40625,-1.078125 0.453125,0 0.453125,0.515625 0.453125,0.65625 0,0.265625 -0.0625,0.5625 -0.09375,0.65625 l -0.640625,2.578125 c -0.015625,0.0625 -0.03125,0.125 -0.03125,0.140625 0,0.109375 0.078125,0.265625 0.28125,0.265625 0.125,0 0.28125,-0.0625 0.359375,-0.265625 L 4.828125,-1.75 C 4.890625,-1.96875 4.9375,-2.171875 5,-2.390625 5.125,-2.875 5.125,-2.90625 5.25,-3.109375 c 0.28125,-0.5 0.71875,-1.078125 1.40625,-1.078125 0.453125,0 0.453125,0.515625 0.453125,0.65625 0,0.625 -0.4375,1.8125 -0.578125,2.203125 -0.125,0.34375 -0.15625,0.4375 -0.15625,0.640625 0,0.4375 0.28125,0.796875 0.75,0.796875 0.9375,0 1.265625,-1.484375 1.265625,-1.53125 0,-0.109375 -0.078125,-0.109375 -0.140625,-0.109375 -0.140625,0 -0.140625,0.03125 -0.171875,0.171875 -0.078125,0.265625 -0.359375,1.25 -0.9375,1.25 -0.203125,0 -0.21875,-0.15625 -0.21875,-0.296875 0,-0.234375 0.109375,-0.5 0.1875,-0.734375 C 7.3125,-1.671875 7.71875,-2.796875 7.71875,-3.375 c 0,-0.828125 -0.578125,-1.03125 -1.046875,-1.03125 -0.703125,0 -1.203125,0.4375 -1.5,0.875 -0.078125,-0.6875 -0.59375,-0.875 -1.046875,-0.875 -0.59375,0 -1.078125,0.328125 -1.421875,0.78125 C 2.625,-4.109375 2.296875,-4.40625 1.859375,-4.40625 1.5,-4.40625 1.3125,-4.171875 1.140625,-3.875 c -0.1875,0.390625 -0.3125,0.984375 -0.3125,1 0,0.109375 0.09375,0.109375 0.15625,0.109375 0.125,0 0.125,-0.015625 0.1875,-0.234375 0.171875,-0.703125 0.359375,-1.1875 0.671875,-1.1875 0.265625,0 0.265625,0.296875 0.265625,0.40625 0,0.15625 -0.03125,0.34375 -0.078125,0.5 l -0.75,2.984375 c -0.015625,0.0625 -0.03125,0.125 -0.03125,0.140625 0,0.109375 0.078125,0.265625 0.28125,0.265625 0.125,0 0.296875,-0.0625 0.359375,-0.265625 z m 0,0"
           id="id-45bbc3b9-5c08-4d06-971c-4ec9cbc54aa8" />
      </g>
      <g
         transform="matrix(1.8627877,0,0,1.8627877,48.956784,18.455464)"
         id="g58044"
         style="fill:#000000;fill-opacity:1;stroke-width:0.267238">
        <path
           style="stroke:none;stroke-width:0.267238"
           d="M 5.109375,-3.890625 C 5.140625,-3.953125 5.140625,-4 5.140625,-4.03125 5.140625,-4.140625 5.0625,-4.296875 4.859375,-4.296875 4.5625,-4.296875 4.5,-4 4.46875,-3.921875 L 3.75,-1.015625 C 3.703125,-0.84375 3.703125,-0.8125 3.609375,-0.6875 3.421875,-0.40625 3.125,-0.109375 2.6875,-0.109375 c -0.4375,0 -0.53125,-0.4375 -0.53125,-0.765625 0,-0.609375 0.328125,-1.5 0.578125,-2.1875 0.078125,-0.203125 0.125,-0.34375 0.125,-0.53125 0,-0.5 -0.328125,-0.8125 -0.75,-0.8125 -0.9375,0 -1.28125,1.46875 -1.28125,1.53125 0,0.109375 0.09375,0.109375 0.15625,0.109375 0.125,0 0.125,-0.03125 0.171875,-0.171875 0.078125,-0.296875 0.34375,-1.25 0.921875,-1.25 0.109375,0 0.21875,0.03125 0.21875,0.296875 0,0.234375 -0.09375,0.5 -0.234375,0.890625 -0.265625,0.703125 -0.515625,1.4375 -0.515625,1.953125 0,0.875 0.578125,1.15625 1.109375,1.15625 0.53125,0 0.875,-0.296875 1.109375,-0.59375 0.1875,0.53125 0.609375,0.59375 0.796875,0.59375 0.375,0 0.578125,-0.25 0.734375,-0.5625 0.171875,-0.375 0.296875,-0.953125 0.296875,-0.96875 0,-0.109375 -0.078125,-0.109375 -0.15625,-0.109375 -0.109375,0 -0.125,0.015625 -0.1875,0.234375 -0.140625,0.5625 -0.328125,1.1875 -0.671875,1.1875 -0.25,0 -0.25,-0.265625 -0.25,-0.40625 0,-0.078125 0,-0.234375 0.0625,-0.515625 z m 0,0"
           id="id-94621108-b371-422d-8d02-c7898a77b770" />
      </g>
      <g
         transform="matrix(1.8627877,0,0,1.8627877,58.91711,18.455464)"
         id="g58047"
         style="fill:#000000;fill-opacity:1;stroke-width:0.267238">
        <path
           style="stroke:none;stroke-width:0.267238"
           d="M 2.59375,-3.984375 H 3.4375 c 0.171875,0 0.28125,0 0.28125,-0.1875 0,-0.125 -0.09375,-0.125 -0.25,-0.125 H 2.671875 l 0.375,-1.46875 c 0.03125,-0.140625 0.03125,-0.171875 0.03125,-0.21875 0,-0.203125 -0.171875,-0.25 -0.265625,-0.25 -0.25,0 -0.34375,0.203125 -0.390625,0.359375 L 2.03125,-4.296875 H 1.1875 c -0.171875,0 -0.28125,0 -0.28125,0.1875 0,0.125 0.09375,0.125 0.25,0.125 H 1.953125 L 1.234375,-1.125 C 1.21875,-1.09375 1.1875,-0.921875 1.1875,-0.78125 c 0,0.484375 0.328125,0.890625 0.84375,0.890625 1.015625,0 1.515625,-1.484375 1.515625,-1.53125 0,-0.109375 -0.078125,-0.109375 -0.140625,-0.109375 -0.125,0 -0.125,0.015625 -0.203125,0.203125 -0.1875,0.46875 -0.578125,1.21875 -1.15625,1.21875 -0.265625,0 -0.265625,-0.25 -0.265625,-0.40625 0,-0.078125 0,-0.234375 0.078125,-0.515625 z m 0,0"
           id="id-541d4412-37bd-441f-8877-4717e7609cd6" />
      </g>
      <g
         transform="matrix(1.8627877,0,0,1.8627877,65.082937,18.455464)"
         id="g58050"
         style="fill:#000000;fill-opacity:1;stroke-width:0.267238">
        <path
           style="stroke:none;stroke-width:0.267238"
           d="m 2.375,-2.296875 c 0.3125,0 0.96875,-0.03125 1.453125,-0.21875 0.78125,-0.328125 0.78125,-0.96875 0.78125,-1.046875 0,-0.453125 -0.359375,-0.84375 -1,-0.84375 -1.046875,0 -2.46875,1 -2.46875,2.765625 0,0.90625 0.46875,1.75 1.421875,1.75 1.28125,0 2.109375,-1 2.109375,-1.140625 0,-0.0625 -0.09375,-0.171875 -0.171875,-0.171875 -0.03125,0 -0.046875,0.015625 -0.125,0.109375 -0.734375,0.9375 -1.625,0.984375 -1.796875,0.984375 -0.640625,0 -0.75,-0.703125 -0.75,-1.09375 0,-0.375 0.09375,-0.828125 0.171875,-1.09375 z m -0.328125,-0.21875 c 0.4375,-1.640625 1.46875,-1.671875 1.5625,-1.671875 0.390625,0 0.625,0.265625 0.625,0.609375 0,1.0625 -1.640625,1.0625 -1.96875,1.0625 z m 0,0"
           id="id-1dccded3-bf89-496b-aa9e-be0e5f2f07b7" />
      </g>
    </g>
  </g>
  <g
     id="g426">
    <g
       transform="matrix(2.2816298,0,0,2.2816298,3.4727556,4.2555287)"
       ns2:version="1.0.1"
       ns2:texconverter="pdflatex"
       ns2:pdfconverter="inkscape"
       ns2:text="$[\\hat{\\mathcal{P}},\\hat{\\mathcal{C}}]$"
       ns2:preamble="/home/igor/.config/inkscape/extensions/textext/default_packages.tex"
       ns2:scale="2.0"
       ns2:alignment="middle center"
       ns2:inkscapeversion="1.0.2"
       ns2:jacobian_sqrt="0.705556"
       id="g21447"
       style="stroke-width:0.218182">
      <defs
         id="id-f7b5fc13-faa9-4e27-9a6b-940c95624e19" />
      <g
         id="id-85618779-6ff5-4f96-b611-30acb731e674"
         transform="translate(-149.884,-125.324)"
         style="stroke-width:0.218182">
        <g
           style="fill:#000000;fill-opacity:1;stroke-width:0.218182"
           id="id-a99fdf59-aac6-4cc3-ade3-f7cbb02e1648">
          <g
             transform="translate(148.712,134.765)"
             id="g21419"
             style="stroke-width:0.218182">
            <path
               style="stroke:none;stroke-width:0.218182"
               d="M 2.546875,2.5 V 2.09375 h -0.96875 v -9.171875 h 0.96875 v -0.40625 h -1.375 V 2.5 Z m 0,0"
               id="id-f46095cc-13d9-4647-9cca-6fa080fc7dba" />
          </g>
        </g>
        <g
           style="fill:#ff6363;fill-opacity:1;stroke-width:0.218182"
           id="id-98b0eac6-a289-48bd-a816-07cfbadca94d">
          <g
             transform="translate(153.694,132.246)"
             id="g21423"
             style="stroke-width:0.218182;fill:#ff6363;fill-opacity:1">
            <path
               style="stroke:none;stroke-width:0.218182;fill:#ff6363;fill-opacity:1"
               d="M 2.5,-6.921875 1.15625,-5.5625 1.328125,-5.390625 2.5,-6.40625 3.640625,-5.390625 3.8125,-5.5625 Z m 0,0"
               id="id-d9ccbf75-6bc1-40bb-9559-ffc559997483" />
          </g>
        </g>
        <g
           style="fill:#ff5555;fill-opacity:0.9137255;stroke-width:0.218182"
           id="id-7dc58a13-8762-4b47-8d54-acad3e311530">
          <g
             transform="translate(151.48,134.765)"
             id="g21427"
             style="stroke-width:0.218182;fill:#ff5555;fill-opacity:0.9137255">
            <path
               style="stroke:none;stroke-width:0.218182;fill:#ff5555;fill-opacity:0.9137255"
               d="m 3.46875,-6.8125 c -1.40625,0 -2.46875,0.6875 -2.875,1.15625 -0.359375,0.390625 -0.390625,0.6875 -0.390625,0.703125 0,0.0625 0.046875,0.078125 0.109375,0.078125 0.15625,0 0.390625,-0.140625 0.46875,-0.1875 0.203125,-0.140625 0.234375,-0.203125 0.296875,-0.390625 0.140625,-0.40625 0.421875,-0.75 1.671875,-0.8125 -0.171875,2.25 -0.78125,4.4375 -1.609375,6.515625 -0.0625,0.15625 -0.0625,0.171875 -0.0625,0.171875 0,0.03125 0.03125,0.078125 0.09375,0.078125 0.15625,0 0.640625,-0.21875 0.75,-0.484375 0.515625,-1.21875 1.34375,-3.5 1.640625,-6.28125 h 0.515625 c 1.21875,0 2.375,0.46875 2.375,1.46875 0,0.75 -0.71875,2.140625 -2.640625,2.203125 -0.21875,0.015625 -0.328125,0.015625 -0.609375,0.1875 -0.171875,0.125 -0.25,0.234375 -0.25,0.296875 0,0.0625 0.0625,0.0625 0.1875,0.0625 1.8125,0 4.171875,-1.53125 4.171875,-3.171875 0,-1.140625 -1.34375,-1.59375 -2.5,-1.59375 z m 0,0"
               id="id-bfb9556c-bdd9-4d72-94ad-5e3805b63065" />
          </g>
        </g>
        <g
           style="fill:#000000;fill-opacity:1;stroke-width:0.218182"
           id="id-4c24ffbb-38ba-4eaf-bf95-0541b0e5207b">
          <g
             transform="translate(159.228,134.765)"
             id="g21431"
             style="stroke-width:0.218182">
            <path
               style="stroke:none;stroke-width:0.218182"
               d="m 2.03125,-0.015625 c 0,-0.65625 -0.25,-1.046875 -0.640625,-1.046875 -0.328125,0 -0.53125,0.25 -0.53125,0.53125 C 0.859375,-0.265625 1.0625,0 1.390625,0 1.5,0 1.640625,-0.046875 1.734375,-0.125 1.765625,-0.15625 1.78125,-0.15625 1.78125,-0.15625 c 0.015625,0 0.015625,0 0.015625,0.140625 0,0.75 -0.34375,1.34375 -0.671875,1.671875 -0.109375,0.109375 -0.109375,0.125 -0.109375,0.15625 0,0.078125 0.046875,0.109375 0.09375,0.109375 0.109375,0 0.921875,-0.765625 0.921875,-1.9375 z m 0,0"
               id="id-5dadb26e-158b-4daf-b8f6-7c2c59a3a391" />
          </g>
        </g>
        <g
           style="fill:#80ff80;fill-opacity:1;stroke-width:0.218182"
           id="id-4cc0a4c7-ec4a-491f-b306-c1b443b14ad8">
          <g
             transform="translate(165.463,132.246)"
             id="g21435"
             style="stroke-width:0.218182;fill:#80ff80;fill-opacity:1">
            <path
               style="stroke:none;stroke-width:0.218182;fill:#80ff80;fill-opacity:1"
               d="M 2.5,-6.921875 1.15625,-5.5625 1.328125,-5.390625 2.5,-6.40625 3.640625,-5.390625 3.8125,-5.5625 Z m 0,0"
               id="id-0706b54a-97fe-4809-8a6a-4710b2500a67" />
          </g>
        </g>
        <g
           style="fill:#80ff80;fill-opacity:1;stroke-width:0.218182"
           id="id-21312057-43a1-42e6-9f2d-4ca011784b04">
          <g
             transform="translate(163.656,134.765)"
             id="g21439"
             style="stroke-width:0.218182;fill:#80ff80;fill-opacity:1">
            <path
               style="stroke:none;stroke-width:0.218182;fill:#80ff80;fill-opacity:1"
               d="m 4.9375,-1.5625 c 0,-0.0625 -0.046875,-0.078125 -0.09375,-0.078125 -0.171875,0 -0.40625,0.15625 -0.421875,0.15625 -0.1875,0.125 -0.234375,0.203125 -0.359375,0.375 -0.296875,0.46875 -0.75,0.796875 -1.390625,0.796875 -0.890625,0 -1.703125,-0.640625 -1.703125,-2.140625 0,-0.890625 0.359375,-2.078125 0.890625,-2.875 0.4375,-0.640625 0.96875,-1.15625 2,-1.15625 0.375,0 0.609375,0.140625 0.609375,0.515625 0,0.34375 -0.359375,1.046875 -0.484375,1.25 -0.0625,0.109375 -0.0625,0.140625 -0.0625,0.15625 0,0.0625 0.0625,0.0625 0.109375,0.0625 0.203125,0 0.578125,-0.21875 0.6875,-0.375 0.03125,-0.046875 0.609375,-1.015625 0.609375,-1.53125 0,-0.546875 -0.453125,-0.625 -0.8125,-0.625 -1.4375,0 -2.625,0.953125 -3.09375,1.515625 C 0.234375,-4.09375 0.125,-2.546875 0.125,-2.03125 0.125,-0.5625 0.859375,0.234375 2.015625,0.234375 3.625,0.234375 4.9375,-1.3125 4.9375,-1.5625 Z m 0,0"
               id="id-30172984-48cf-4fa5-b2ca-476ba3cb04ba" />
          </g>
        </g>
        <g
           style="fill:#000000;fill-opacity:1;stroke-width:0.218182"
           id="id-faac449e-d4c6-4bd6-9513-08ea0f2653d5">
          <g
             transform="translate(169.483,134.765)"
             id="g21443"
             style="stroke-width:0.218182">
            <path
               style="stroke:none;stroke-width:0.218182"
               d="M 1.578125,-7.484375 H 0.21875 v 0.40625 H 1.1875 V 2.09375 H 0.21875 V 2.5 h 1.359375 z m 0,0"
               id="id-26d96b15-f175-402b-b5c5-38337f563dbc" />
          </g>
        </g>
      </g>
    </g>
  </g>
</svg>
